<svg width="202" height="249" viewBox="0 0 202 249" fill="none" xmlns="http://www.w3.org/2000/svg">
<path d="M51.5199 112.347C54.4139 110.806 57.6424 110 60.9212 110H118.5C129.546 110 138.5 118.954 138.5 130L138.5 133.497C138.5 144.542 129.546 153.497 118.5 153.497H75.9275C64.8818 153.497 55.9275 162.451 55.9275 173.497V188.34C55.9275 199.386 64.8818 208.34 75.9275 208.34H141.399C152.445 208.34 161.4 199.386 161.4 188.34V146.46C161.4 130.673 178.834 121.11 192.148 129.594L192.748 129.977C198.511 133.649 202 140.009 202 146.843V229C202 240.046 193.046 249 182 249H98.7549H4.03081L0.461603 152.293C0.179233 144.642 4.28923 137.501 11.0466 133.903L51.5199 112.347Z" fill="#0000FF" fill-opacity="0.6"/>
<path d="M0 20C0 8.95431 8.95431 0 20 0H182C193.046 0 202 8.9543 202 20V96.7397C202 107.785 193.046 116.74 182 116.74H180.366C169.321 116.74 160.366 107.785 160.366 96.7397V67.4421C160.366 56.3965 151.412 47.4422 140.366 47.4422H52.9415V87.4656C52.9415 94.6837 49.0521 101.342 42.7646 104.887L0 129V47.4422V20Z" fill="#1DF5D1"/>
</svg>
